HIERARCHY
ROOT Hips
{
	OFFSET 0.000000 0.000000 0.000000
	CHANNELS 6 Xposition Yposition Zposition Xrotation Yrotation Zrotation
	JOINT LeftUpLeg_virtual
	{
		OFFSET 0.000000 0.000000 0.000000
		CHANNELS 3 Xrotation Yrotation Zrotation
		JOINT LeftUpLeg
		{
			OFFSET 10.205400 -3.823500 0.155100
			CHANNELS 3 Xrotation Yrotation Zrotation
			JOINT LeftLeg
			{
				OFFSET 0.708757 -12.982077 0.567790
				CHANNELS 3 Xrotation Yrotation Zrotation
				JOINT LeftFoot
				{
					OFFSET -0.708756 -10.717838 -2.184338
					CHANNELS 3 Xrotation Yrotation Zrotation
					JOINT LeftToeBase
					{
						OFFSET 0.108149 -7.191104 7.560241
						CHANNELS 3 Xrotation Yrotation Zrotation
						JOINT LeftToe_End
						{
							OFFSET 0.070230 0.081724 4.490308
							CHANNELS 3 Xrotation Yrotation Zrotation
							End Site
							{
								OFFSET 0 0 0
							}
						}
					}
				}
			}
		}
	}
	JOINT RightUpLeg_virtual
	{
		OFFSET 0.000000 0.000000 0.000000
		CHANNELS 3 Xrotation Yrotation Zrotation
		JOINT RightUpLeg
		{
			OFFSET -10.205400 -3.823500 0.005500
			CHANNELS 3 Xrotation Yrotation Zrotation
			JOINT RightLeg
			{
				OFFSET -0.708756 -12.982134 0.610632
				CHANNELS 3 Xrotation Yrotation Zrotation
				JOINT RightFoot
				{
					OFFSET 0.708754 -10.717769 -1.945823
					CHANNELS 3 Xrotation Yrotation Zrotation
					JOINT RightToeBase
					{
						OFFSET -0.108140 -7.191069 7.372968
						CHANNELS 3 Xrotation Yrotation Zrotation
						JOINT RightToe_End
						{
							OFFSET -0.070227 0.081735 4.479403
							CHANNELS 3 Xrotation Yrotation Zrotation
							End Site
							{
								OFFSET 0 0 0
							}
						}
					}
				}
			}
		}
	}
	JOINT Spine_virtual
	{
		OFFSET 0.000000 0.000000 0.000000
		CHANNELS 3 Xrotation Yrotation Zrotation
		JOINT Spine
		{
			OFFSET 0.000000 6.876099 0.125700
			CHANNELS 3 Xrotation Yrotation Zrotation
			JOINT Spine1
			{
				OFFSET 0.000000 5.730043 0.104720
				CHANNELS 3 Xrotation Yrotation Zrotation
				JOINT Spine1_split
				{
					OFFSET 0.000000 5.730043 0.104720
					CHANNELS 3 Xrotation Yrotation Zrotation
					JOINT Spine2
					{
						OFFSET 0.000000 5.730043 0.104720
						CHANNELS 3 Xrotation Yrotation Zrotation
						JOINT Neck_virtual
						{
							OFFSET 0.000000 0.000000 0.000000
							CHANNELS 3 Xrotation Yrotation Zrotation
							JOINT Neck
							{
								OFFSET 0.000000 10.314075 0.188496
								CHANNELS 3 Xrotation Yrotation Zrotation
								JOINT Head
								{
									OFFSET 0.000000 7.643700 -2.377400
									CHANNELS 3 Xrotation Yrotation Zrotation
									JOINT HeadTop_End
									{
										OFFSET 0.000000 43.788605 -13.619600
										CHANNELS 3 Xrotation Yrotation Zrotation
										End Site
										{
											OFFSET 0 0 0
										}
									}
								}
							}
						}
						JOINT LeftShoulder_virtual
						{
							OFFSET 0.000000 0.000000 0.000000
							CHANNELS 3 Xrotation Yrotation Zrotation
							JOINT LeftShoulder
							{
								OFFSET 2.196100 4.412489 0.087492
								CHANNELS 3 Xrotation Yrotation Zrotation
								JOINT LeftShoulder_split
								{
									OFFSET 2.196100 4.412489 0.087492
									CHANNELS 3 Xrotation Yrotation Zrotation
									JOINT LeftArm
									{
										OFFSET 8.771219 -2.981674 -0.026999
										CHANNELS 3 Xrotation Yrotation Zrotation
										JOINT LeftForeArm
										{
											OFFSET 8.512804 0.000000 -0.000000
											CHANNELS 3 Xrotation Yrotation Zrotation
											JOINT LeftHand
											{
												OFFSET 18.484802 0.000000 -0.000000
												CHANNELS 3 Xrotation Yrotation Zrotation
												End Site
												{
													OFFSET 0 0 0
												}
											}
										}
									}
								}
							}
						}
						JOINT RightShoulder_virtual
						{
							OFFSET 0.000000 0.000000 0.000000
							CHANNELS 3 Xrotation Yrotation Zrotation
							JOINT RightShoulder
							{
								OFFSET -2.196100 4.412496 0.070690
								CHANNELS 3 Xrotation Yrotation Zrotation
								JOINT RightShoulder_split
								{
									OFFSET -2.196100 4.412496 0.070690
									CHANNELS 3 Xrotation Yrotation Zrotation
									JOINT RightArm
									{
										OFFSET -8.771282 -2.981682 -0.094208
										CHANNELS 3 Xrotation Yrotation Zrotation
										JOINT RightForeArm
										{
											OFFSET -8.494598 0.000000 0.000000
											CHANNELS 3 Xrotation Yrotation Zrotation
											JOINT RightHand
											{
												OFFSET -18.483803 0.000000 0.000001
												CHANNELS 3 Xrotation Yrotation Zrotation
												End Site
												{
													OFFSET 0 0 0
												}
											}
										}
									}
								}
							}
						}
					}
				}
			}
		}
	}
}
MOTION
Frames: 10
Frame Time: 0.03333333
3.077818 30.804642 0.757570 0.000000 0.000000 0.000000 6.157917 -13.797589 -1.971942 -35.421105 1.714938 16.495011 55.136968 9.688019 -1.706244 -23.688814 6.695336 -14.367171 -1.606951 -2.657069 -3.348941 0.000000 0.000000 0.000000 5.454588 -9.699313 -1.132872 -18.445442 -6.144255 -17.631915 48.367892 -11.403555 -11.485641 -14.601000 2.893787 13.843401 -19.983889 -9.977258 13.011464 0.000000 0.000000 0.000000 6.831109 -8.274672 -0.314701 12.698307 2.713918 -2.501566 8.321003 6.511561 -2.605358 0.075817 -1.724701 1.149057 0.000000 0.000000 0.000000 -1.715274 6.070711 -0.793141 -6.001276 1.133577 -0.127302 -7.739129 8.182890 6.110078 0.000000 0.000000 0.000000 -3.135161 6.100632 -0.885861 -2.176614 0.298873 -3.216430 1.037374 -1.788479 1.295451 -14.045104 1.035513 -55.399200 -12.942017 -32.141538 -5.066436 0.000000 0.000000 0.000000 -3.656124 5.392516 -0.854351 5.146728 -8.955420 9.724331 2.263687 -2.385939 -2.280449 22.964966 58.023249 24.919609 16.367005 29.554597 4.934934 0.000000 0.000000 0.000000 
3.079213 31.060574 0.721432 0.000000 0.000000 0.000000 6.509070 -13.884057 -2.503913 -34.339927 0.927311 16.703607 52.000317 9.884027 -1.127043 -22.116385 6.252455 -13.652702 -1.571372 -2.725479 -3.627744 0.000000 0.000000 0.000000 5.550889 -9.777149 -1.807593 -17.507313 -6.957386 -15.021346 44.919405 -8.562619 -10.184108 -16.535601 3.462255 14.619144 -16.933589 -7.446407 9.652677 0.000000 0.000000 0.000000 6.888957 -8.146739 -0.822953 12.905018 2.893151 -2.142341 7.990047 6.536142 -2.460466 -0.031737 -1.819022 1.049376 0.000000 0.000000 0.000000 -2.055279 6.004656 -0.571029 -6.191578 1.231298 -0.276335 -7.320971 7.720455 6.738222 0.000000 0.000000 0.000000 -3.486079 6.046848 -0.818730 -2.160082 1.058500 -3.619739 1.240485 -1.979646 1.508099 -14.112749 1.522910 -55.510846 -12.165482 -30.922971 -4.263288 0.000000 0.000000 0.000000 -3.980671 5.389207 -0.703628 4.677446 -7.512893 9.399430 2.135453 -2.181742 -2.821369 15.259775 54.279828 30.832932 15.363703 26.694317 6.716912 0.000000 0.000000 0.000000 
3.058992 31.317455 0.679283 0.000000 0.000000 0.000000 6.603694 -14.080754 -2.903503 -33.043414 0.477006 16.878046 49.105276 10.034473 -0.644680 -21.105308 5.974745 -12.588562 -1.545496 -2.788361 -3.884664 0.000000 0.000000 0.000000 5.487016 -10.008472 -2.340261 -15.605768 -6.906227 -12.708453 40.098989 -6.438300 -9.273051 -18.819418 2.786996 15.123729 -13.711752 -5.553118 7.245838 0.000000 0.000000 0.000000 6.623640 -8.217489 -1.250935 13.136604 3.049661 -1.756071 7.607638 6.515743 -2.363985 0.019952 -2.013088 0.981034 0.000000 0.000000 0.000000 -2.420406 5.910039 -0.427650 -6.291432 1.336145 -0.399047 -6.845978 7.092235 7.456099 0.000000 0.000000 0.000000 -3.843420 5.949030 -0.820388 -2.127557 1.774942 -3.980761 1.321606 -2.047691 1.587910 -14.057387 2.185912 -55.686963 -11.410179 -29.643349 -3.519050 0.000000 0.000000 0.000000 -4.323336 5.346030 -0.621990 4.125210 -6.223337 8.920480 1.785896 -1.944045 -2.954566 9.308548 49.521255 36.425798 15.385843 24.513223 6.885135 0.000000 0.000000 0.000000 
3.038487 31.529970 0.626040 0.000000 0.000000 0.000000 6.437050 -14.254305 -3.163055 -31.730412 0.425211 16.916840 46.766493 10.124566 -0.351307 -20.610255 5.932987 -11.400155 -1.589912 -2.811453 -4.072658 0.000000 0.000000 0.000000 5.294732 -10.149111 -2.736273 -13.214156 -6.079297 -10.914067 34.662172 -4.819089 -8.795161 -21.065186 1.355731 15.420089 -10.755532 -4.373093 6.116562 0.000000 0.000000 0.000000 6.073097 -8.399819 -1.543087 13.337882 3.120809 -1.405135 7.195890 6.453149 -2.277530 0.195569 -2.179688 0.987790 0.000000 0.000000 0.000000 -2.819067 5.796978 -0.327011 -6.257820 1.393389 -0.540960 -6.374072 6.291117 8.259577 0.000000 0.000000 0.000000 -4.217206 5.825609 -0.831152 -2.088690 2.420552 -4.196741 1.270203 -2.154747 1.644064 -13.862142 2.785311 -55.909661 -10.688549 -28.474121 -2.840789 0.000000 0.000000 0.000000 -4.681293 5.274533 -0.556119 3.538840 -5.090934 8.435455 1.265993 -1.938372 -2.767731 5.333143 44.380582 41.548338 15.989186 22.911047 5.914335 0.000000 0.000000 0.000000 
3.025744 31.710232 0.593147 0.000000 0.000000 0.000000 6.109649 -14.181085 -3.276749 -30.481676 0.735163 16.834166 44.959324 10.109972 -0.270077 -20.381768 6.064884 -10.444964 -1.797239 -2.789629 -4.130319 0.000000 0.000000 0.000000 4.990479 -10.193389 -2.946783 -10.771702 -4.888601 -9.820451 29.741649 -3.682915 -8.607463 -22.934629 -0.312520 15.413884 -8.212181 -3.686888 6.106227 0.000000 0.000000 0.000000 5.387184 -8.682889 -1.706807 13.452957 3.075102 -1.135750 6.789159 6.367034 -2.166496 0.362950 -2.285464 1.053867 0.000000 0.000000 0.000000 -3.246165 5.679058 -0.229065 -6.080135 1.396811 -0.780898 -5.929973 5.317657 9.120516 0.000000 0.000000 0.000000 -4.601320 5.697341 -0.798113 -2.041102 2.967068 -4.229336 1.210304 -2.279007 1.656727 -13.643323 3.125777 -56.196700 -10.024557 -27.524138 -2.210699 0.000000 0.000000 0.000000 -5.030527 5.191435 -0.462819 2.946701 -4.112929 8.054166 0.827210 -2.034640 -2.584331 3.196488 39.521452 46.026073 16.706004 21.900856 4.372723 0.000000 0.000000 0.000000 
2.988049 31.864683 0.535999 0.000000 0.000000 0.000000 5.696560 -13.897434 -3.248695 -29.231717 1.251859 16.591889 43.585582 9.921778 -0.349121 -20.129770 6.268432 -9.887378 -2.145590 -2.741636 -4.082488 0.000000 0.000000 0.000000 4.612932 -9.962942 -3.008741 -8.848179 -3.801491 -9.481974 25.954406 -2.836674 -8.552130 -24.053001 -1.710643 15.274371 -6.194894 -3.251612 6.736186 0.000000 0.000000 0.000000 4.758790 -8.900013 -1.764009 13.438783 2.942371 -0.957606 6.410212 6.278038 -2.016664 0.406609 -2.216758 1.084790 0.000000 0.000000 0.000000 -3.679718 5.566794 -0.106326 -5.760177 1.345817 -1.168116 -5.473030 4.249846 9.982383 0.000000 0.000000 0.000000 -4.994090 5.579848 -0.697644 -1.981700 3.403007 -4.105745 1.138573 -2.471520 1.649529 -13.450343 3.179321 -56.557358 -9.458468 -26.891058 -1.650581 0.000000 0.000000 0.000000 -5.351536 5.113015 -0.321325 2.373797 -3.282025 7.735922 0.526252 -2.423390 -2.494163 2.397126 35.265476 50.005799 17.130301 21.408217 2.706055 0.000000 0.000000 0.000000 
2.929140 32.009983 0.529325 0.000000 0.000000 0.000000 5.316468 -13.585136 -3.111037 -27.980621 1.865198 16.214884 42.295127 9.551854 -0.493617 -19.732799 6.451474 -9.689612 -2.436017 -2.702237 -3.978081 0.000000 0.000000 0.000000 4.145931 -9.509871 -2.965446 -7.613655 -3.342619 -9.811825 23.719307 -2.270599 -8.372702 -23.983318 -2.549208 15.445619 -5.217993 -2.860702 7.402081 0.000000 0.000000 0.000000 4.237781 -8.936406 -1.706855 13.298600 2.750107 -0.857640 6.081227 6.203346 -1.842134 0.392274 -2.032608 1.036641 0.000000 0.000000 0.000000 -4.113849 5.468535 0.032342 -5.308586 1.281094 -1.752685 -4.914739 3.157647 10.781047 0.000000 0.000000 0.000000 -5.392268 5.483832 -0.552938 -1.913762 3.713289 -3.920328 1.181868 -2.691348 1.601996 -13.319586 2.954215 -57.022155 -9.013422 -26.519097 -1.186773 0.000000 0.000000 0.000000 -5.629931 5.056657 -0.143700 1.835165 -2.595661 7.424067 0.319387 -3.043884 -2.611243 2.487995 31.692699 53.436484 16.933344 21.481254 1.266445 0.000000 0.000000 0.000000 
2.844418 32.163288 0.569614 0.000000 0.000000 0.000000 5.009962 -13.316396 -2.888384 -26.625787 2.470546 15.783341 40.878426 9.070108 -0.635922 -19.236036 6.619785 -9.691211 -2.406782 -2.696158 -3.914093 0.000000 0.000000 0.000000 3.662045 -9.109492 -2.802633 -7.042847 -3.614385 -10.505739 22.625584 -1.948281 -8.062495 -23.003275 -2.834355 15.941617 -5.319289 -2.415573 7.690972 0.000000 0.000000 0.000000 3.880102 -8.835169 -1.577564 13.053726 2.540344 -0.825456 5.800537 6.147660 -1.667090 0.271875 -1.831140 0.895226 0.000000 0.000000 0.000000 -4.534190 5.390475 0.173246 -4.778788 1.259142 -2.534918 -4.230804 2.118106 11.487962 0.000000 0.000000 0.000000 -5.780039 5.405345 -0.395552 -1.836629 3.926126 -3.788223 1.293455 -2.870418 1.473935 -13.200617 2.651586 -57.612065 -8.727520 -26.246347 -0.831263 0.000000 0.000000 0.000000 -5.869692 5.018677 0.043127 1.343828 -2.030648 7.118457 -0.006450 -3.745917 -2.653267 3.130019 28.619599 56.430524 15.991862 21.891535 0.277281 0.000000 0.000000 0.000000 
2.723449 32.305717 0.633492 0.000000 0.000000 0.000000 4.735669 -13.122832 -2.645988 -25.231818 3.033833 15.317343 39.233621 8.510862 -0.720507 -18.641570 6.809372 -9.819071 -2.061089 -2.716554 -3.938985 0.000000 0.000000 0.000000 3.213560 -8.824162 -2.586178 -6.872043 -4.526085 -11.254579 22.063213 -1.855481 -7.589761 -21.515079 -2.699674 16.436999 -5.848633 -1.807975 7.485063 0.000000 0.000000 0.000000 3.601215 -8.642705 -1.417378 12.742878 2.340786 -0.838348 5.567174 6.107369 -1.507471 0.131903 -1.599274 0.745436 0.000000 0.000000 0.000000 -4.938340 5.329410 0.304416 -4.235558 1.326023 -3.449717 -3.437190 1.201750 12.081868 0.000000 0.000000 0.000000 -6.155361 5.345276 -0.249466 -1.755172 4.088161 -3.796893 1.413045 -2.951680 1.324859 -13.047246 2.469877 -58.290549 -8.616488 -25.892670 -0.598051 0.000000 0.000000 0.000000 -6.093306 4.995146 0.212505 0.898608 -1.550528 6.822357 -0.459864 -4.300404 -2.527295 4.137920 25.866183 59.144493 14.330481 22.350647 -0.202375 0.000000 0.000000 0.000000 
2.592219 32.438023 0.719839 0.000000 0.000000 0.000000 4.436703 -13.028593 -2.440144 -23.931634 3.592600 14.951390 37.551554 7.890829 -0.703601 -17.766287 7.052615 -10.153267 -1.549800 -2.748387 -4.058369 0.000000 0.000000 0.000000 2.849166 -8.888716 -2.342330 -6.789583 -5.788754 -11.779607 21.325205 -2.000862 -7.014366 -20.102162 -2.324206 16.572752 -6.119843 -1.002605 6.890668 0.000000 0.000000 0.000000 3.311751 -8.509416 -1.275280 12.413201 2.154871 -0.873196 5.361761 6.076972 -1.364677 0.007958 -1.461120 0.700497 0.000000 0.000000 0.000000 -5.320606 5.279490 0.423437 -3.736020 1.477199 -4.405440 -2.595786 0.438226 12.556482 0.000000 0.000000 0.000000 -6.498518 5.294802 -0.115747 -1.678878 4.264218 -3.942817 1.554573 -2.898512 1.215272 -12.795465 2.510889 -59.035879 -8.641038 -25.426223 -0.464307 0.000000 0.000000 0.000000 -6.322909 4.973433 0.360760 0.504868 -1.107591 6.578409 -1.015969 -4.608430 -2.267931 5.422100 23.358998 61.678015 12.193159 22.653332 -0.226792 0.000000 0.000000 0.000000 
